<svg width="149" height="121" viewBox="0 0 149 121" fill="none" xmlns="http://www.w3.org/2000/svg">
<g clip-path="url(#clip0)">
<path d="M67.9441 95.0933C68.5951 94.8815 69.2512 94.6535 69.8951 94.4152L70.0115 94.7063C69.3625 94.9459 68.7017 95.1765 68.0457 95.3896L67.9441 95.0933ZM63.9675 96.449L63.8657 96.0255C64.5371 95.8746 65.2158 95.7001 65.8808 95.5103L65.9944 95.9321C65.7865 95.9876 65.5785 96.0431 65.3706 96.0987C64.9102 96.2257 64.4362 96.3428 63.9671 96.4478L63.9675 96.449ZM60.0445 97.1056L60.0099 96.8157C60.6834 96.7075 61.3674 96.5885 62.0385 96.4512L62.0889 96.7396C61.4131 96.8741 60.7259 96.9967 60.0457 97.1052L60.0445 97.1056ZM71.6408 93.5957C72.2697 93.3222 72.8976 93.0299 73.5082 92.7288L73.6609 93.0386C73.0446 93.3385 72.411 93.635 71.7789 93.9121L71.6408 93.5957ZM56.0493 97.489L56.0367 97.1594C56.7167 97.1213 57.4079 97.0639 58.0881 96.9959L58.1181 97.3196C57.4303 97.3895 56.7343 97.4441 56.048 97.484L56.0493 97.489ZM75.0579 91.9535C75.6577 91.6119 76.2564 91.2517 76.8398 90.8847L77.026 91.1978C76.4458 91.5666 75.836 91.9311 75.2312 92.274L75.0579 91.9535ZM51.9898 97.6284L52.0026 97.2771C52.6912 97.3111 53.3904 97.3288 54.0788 97.3317L54.0809 97.6831C53.3832 97.6759 52.6787 97.6583 51.9859 97.624L51.9898 97.6284ZM78.5406 89.6508C79.1228 89.2896 79.7006 88.912 80.2756 88.5242L80.4765 88.7656C79.9018 89.1546 79.324 89.5323 78.7307 89.8978L78.5406 89.6508ZM48.0276 97.2504L48.0656 96.887C48.7625 96.9973 49.4712 97.0909 50.1698 97.167L50.1423 97.5344C49.4404 97.4511 48.7285 97.3556 48.0249 97.2457L48.0276 97.2504ZM81.7756 87.3318C82.2605 86.9221 82.7432 86.494 83.2117 86.0589L83.4293 86.3067C82.9572 86.7441 82.4702 87.176 81.9818 87.588L81.7756 87.3318ZM84.6663 84.6323C85.1251 84.151 85.5789 83.6508 86.0129 83.1478L86.2606 83.3916C85.8219 83.8973 85.365 84.401 84.8967 84.8875L84.6663 84.6323ZM87.5097 81.7572C87.954 81.2623 88.3926 80.7512 88.8131 80.2383L89.0806 80.4294C88.6577 80.9484 88.2153 81.4605 87.7666 81.9593L87.5097 81.7572ZM36.306 94.0299L36.4513 93.7367C37.0731 93.9767 37.7082 94.2009 38.338 94.4104L38.2075 94.7079C37.5732 94.4969 36.9329 94.2686 36.306 94.0299ZM90.05 78.6694C90.3972 78.1219 90.7397 77.5567 91.064 76.9895L91.3379 77.179C91.0092 77.75 90.6664 78.3193 90.3164 78.8717L90.05 78.6694ZM32.883 92.061L33.0337 91.7676C33.5972 92.099 34.1745 92.4213 34.7515 92.7274L34.6133 93.0269C34.0311 92.7168 33.451 92.3939 32.883 92.061ZM92.0386 75.2944C92.3733 74.7354 92.6997 74.1609 93.0077 73.5886L93.3059 73.7323C92.9948 74.3081 92.6656 74.8874 92.3282 75.4513L92.0386 75.2944ZM29.4493 90.057L29.6488 89.7886C30.1997 90.1341 30.7687 90.4708 31.3393 90.7935L31.1577 91.0681C30.5788 90.7449 30.0057 90.4079 29.4493 90.057ZM93.9549 71.6654C94.1965 71.0486 94.4252 70.419 94.6389 69.7894L94.9338 69.9258C94.7199 70.5596 94.4875 71.1956 94.2443 71.8168L93.9549 71.6654ZM26.1286 87.5748L26.3298 87.3127C26.8276 87.7536 27.3429 88.1886 27.8584 88.6045L27.6742 88.8743C27.1488 88.457 26.6313 88.0186 26.1286 87.5748ZM95.3696 67.9604C95.5952 67.3344 95.8078 66.6956 96.0043 66.0624L96.3293 66.1543C96.132 66.7944 95.9166 67.4381 95.6892 68.0673L95.3696 67.9604ZM23.0249 85.0049L23.2713 84.7645C23.7567 85.2196 24.2607 85.6684 24.7669 86.1004L24.5327 86.3511C24.0213 85.9151 23.5138 85.4632 23.0249 85.0049ZM96.4969 64.0859C96.6462 63.4694 96.7826 62.8401 96.9057 62.2171L97.2178 62.2813C97.0948 62.9097 96.9569 63.5435 96.8061 64.1644L96.4969 64.0859ZM97.1703 60.3177C97.2843 59.6254 97.3815 58.9213 97.4616 58.2245L97.8227 58.2634C97.7391 58.9625 97.6427 59.6745 97.5288 60.3723L97.1703 60.3177ZM17.9922 78.8529L18.2335 78.6639C18.5999 79.2429 18.9803 79.8181 19.3688 80.383L19.1353 80.5807C18.7452 80.0148 18.3623 79.4403 17.9922 78.8529ZM97.5589 56.405C97.5969 55.7181 97.6194 55.0244 97.6249 54.3381L97.9685 54.3424C97.9619 55.0345 97.9359 55.7358 97.9015 56.4258L97.5589 56.405ZM15.6698 75.5965L15.9801 75.4216C16.3265 76.0167 16.6903 76.6112 17.0628 77.1872L16.7613 77.3746C16.3862 76.7939 16.0147 76.1961 15.6698 75.5965ZM97.6711 52.3238C97.6357 51.647 97.5855 50.9606 97.5211 50.282L97.8391 50.2621C97.9033 50.9447 97.954 51.6378 97.9857 52.321L97.6711 52.3238ZM13.9618 71.9364L14.2628 71.7978C14.5427 72.4188 14.8396 73.042 15.1457 73.6493L14.85 73.8027C14.5409 73.1895 14.2427 72.5612 13.9618 71.9364ZM97.3292 48.3625C97.2264 47.6928 97.1088 47.0136 96.9795 46.3416L97.2549 46.2992C97.3842 46.9766 97.5032 47.6609 97.6073 48.3356L97.3292 48.3625ZM12.4768 68.2168L12.7565 68.115C12.9745 68.7634 13.2094 69.414 13.4539 70.0498L13.1792 70.1651C12.9336 69.5201 12.6984 68.8683 12.4768 68.2168ZM96.7606 44.4631C96.6173 43.7893 96.4539 43.1115 96.2751 42.4473L96.6707 42.3417C96.8508 43.011 97.0156 43.6938 97.1613 44.3764L96.7606 44.4631ZM11.4278 65.2132C11.3585 64.9556 11.2918 64.6977 11.2277 64.4396L11.6562 64.3251C11.7183 64.5793 11.7841 64.8356 11.8537 65.094C11.9648 65.507 12.0843 65.9204 12.208 66.3246L11.7819 66.4478C11.6601 66.0459 11.54 65.6299 11.4278 65.2132ZM10.8973 62.3486C10.7562 61.6729 10.6264 60.9888 10.5136 60.3124L10.8211 60.2682C10.9338 60.9392 11.0616 61.6211 11.2022 62.2901L10.8973 62.3486ZM94.7274 37.9039C94.5018 37.2724 94.3423 36.978 94.0967 36.3533L94.3374 36.2376C94.5865 36.8654 94.784 37.3365 95.0127 37.9793L94.7274 37.9039ZM10.3136 58.3828C10.2386 57.7003 10.1784 57.0071 10.1343 56.3232L10.4765 56.3022C10.5193 56.9811 10.5794 57.6689 10.6547 58.3526L10.3136 58.3828ZM92.4037 32.7542L92.6729 32.5983C92.9879 33.2032 93.2931 33.8269 93.5791 34.4503L93.3032 34.5917C93.0202 33.9742 92.7151 33.3559 92.4037 32.7542ZM9.95449 54.3679C9.95194 53.6769 9.96545 52.9749 9.9963 52.2817L10.3593 52.2876C10.329 52.9725 10.3148 53.672 10.3176 54.3589L9.95449 54.3679ZM90.2623 29.2816L90.5399 29.091C90.9215 29.6659 91.295 30.2605 91.6505 30.8546L91.3641 31.0326C91.0108 30.4366 90.6429 29.8472 90.2622 29.2762L90.2623 29.2816ZM10.1057 50.4468C10.131 49.7633 10.1671 49.0592 10.227 48.3732L10.5336 48.4267C10.4815 49.1066 10.445 49.8039 10.421 50.4871L10.1057 50.4468ZM87.787 26.3503L88.0674 26.14C88.4983 26.6151 88.9235 27.1093 89.3299 27.6045L89.0378 27.8016C88.6369 27.3117 88.2143 26.8222 87.787 26.3503ZM10.7112 46.4261C10.8281 45.7952 10.9603 45.1603 11.1047 44.5356L11.4254 44.6015C11.2809 45.2208 11.1503 45.8513 11.0349 46.4777L10.7112 46.4261ZM85.2543 23.2163L85.4778 22.9915C85.9212 23.4524 86.3598 23.9309 86.7832 24.4134L86.5513 24.6269C86.1314 24.1475 85.6948 23.6713 85.2537 23.2138L85.2543 23.2163ZM11.3132 42.3873C11.5038 41.7476 11.7147 41.1024 11.937 40.4692L12.2694 40.5631C12.0483 41.1907 11.8405 41.8323 11.6511 42.4662L11.3132 42.3873ZM82.334 20.4242L82.5519 20.1684C83.0642 20.5974 83.5748 21.0457 84.0694 21.4997L83.8435 21.7509C83.3483 21.2944 82.8411 20.8491 82.334 20.4242ZM12.7093 38.6129C12.92 37.9773 13.1463 37.3389 13.3834 36.7152L13.6828 36.8531C13.4418 37.4724 13.2205 38.1041 13.0129 38.7362L12.7093 38.6129ZM79.0236 17.9799L79.2314 17.6916C79.8166 18.0889 80.4016 18.5052 80.9669 18.9295L80.7447 19.2095C80.1813 18.7874 79.6028 18.3747 79.0236 17.9799ZM14.1138 34.8701C14.4188 34.2918 14.742 33.7101 15.0762 33.1444L15.3757 33.2878C15.0433 33.8503 14.723 34.4272 14.4195 35.001L14.1138 34.8701ZM75.824 15.9526L75.9928 15.6707C76.5674 15.9882 77.144 16.3229 77.7058 16.6683L77.5213 16.9422C76.9673 16.6056 76.3902 16.2738 75.8238 15.9567L75.824 15.9526ZM16.0799 31.4213C16.4025 30.8478 16.7417 30.2753 17.0882 29.7199L17.3604 29.9084C17.0167 30.4591 16.6803 31.0267 16.3609 31.5966L16.0799 31.4213ZM72.1859 14.0831L72.3119 13.7787C72.8921 14.0813 73.4766 14.4003 74.048 14.7309L73.9132 15.0376C73.3426 14.7 72.7625 14.3825 72.1859 14.0831ZM18.2816 27.9542C18.6994 27.4365 19.1363 26.9138 19.5811 26.416L19.8467 26.6049C19.4063 27.1043 18.9722 27.6168 18.5562 28.1313L18.2816 27.9542ZM20.8165 24.8313C21.2513 24.3213 21.7034 23.8148 22.1611 23.3243L22.4046 23.5625C21.9509 24.0478 21.502 24.5508 21.0703 25.0572L20.8165 24.8313ZM23.6494 21.9171C24.1153 21.4773 24.5985 21.041 25.0839 20.623L25.2953 20.863C24.8143 21.2771 24.3346 21.7111 23.8746 22.148L23.6494 21.9171ZM60.6666 10.7152L60.7135 10.3846C61.3458 10.4972 61.9847 10.6244 62.6131 10.7679L62.5544 11.0949C61.9296 10.9545 61.2957 10.826 60.6666 10.7152ZM26.5848 19.3938C27.136 18.9474 27.705 18.5071 28.2716 18.0878L28.4871 18.3836C27.9212 18.8054 27.3577 19.2361 26.8109 19.6785L26.5848 19.3938ZM56.7025 10.3201L56.7334 10.006C57.4265 10.0266 58.1275 10.0614 58.8161 10.1103L58.7648 10.4245C58.0883 10.375 57.3914 10.3405 56.7025 10.3201ZM29.8271 17.0917C30.4049 16.7141 31.008 16.3445 31.6053 15.9942L31.7817 16.2909C31.1878 16.639 30.5945 17.0045 30.016 17.3796L29.8271 17.0917ZM52.5913 10.2879L52.5726 9.91524C53.2674 9.90697 53.9725 9.9163 54.6689 9.94416L54.6763 10.3198C53.9887 10.2896 53.285 10.2853 52.5942 10.2885L52.5913 10.2879ZM33.3539 14.9681C33.9659 14.6571 34.594 14.3554 35.2202 14.0717L35.3614 14.3589C34.7402 14.6412 34.1169 14.9403 33.5108 15.2484L33.3539 14.9681ZM48.8106 10.5694L48.7645 10.2162C49.4495 10.1361 50.147 10.0717 50.8351 10.0233L50.8637 10.377C50.18 10.4216 49.4896 10.4868 48.8112 10.5665L48.8106 10.5694ZM37.0072 13.3048C37.6484 13.0564 38.3044 12.823 38.9544 12.5926L39.0525 12.856C38.4058 13.0788 37.7553 13.3175 37.1189 13.5633L37.0072 13.3048ZM44.633 11.1734L44.5648 10.8546C45.2411 10.7065 45.929 10.5715 46.6093 10.4534L46.6632 10.7747C45.9883 10.8927 45.3042 11.0267 44.633 11.1734ZM40.7362 11.9272C41.3467 11.7317 41.971 11.5473 42.596 11.3804L42.7494 11.3394L42.8579 11.7423L42.7044 11.7832C42.0845 11.9488 41.464 12.1321 40.8582 12.3251L40.7362 11.9272Z" fill="#24B47E"/>
<path d="M70.5395 17.1942L72.3482 10.9112L65.2951 11.6994L70.5395 17.1942Z" fill="#24B47E"/>
<path d="M66.4746 80.8022C64.6972 80.8029 62.9921 80.1014 61.7333 78.8516C60.4744 77.6018 59.7645 75.9057 59.7593 74.1353V37.467C59.7624 35.6959 60.4716 33.9986 61.731 32.7483C62.9903 31.4981 64.6966 30.7973 66.4746 30.8001H142.284C144.062 30.7976 145.768 31.4985 147.028 32.7487C148.287 33.9989 148.996 35.696 149 37.467V74.1353C148.996 75.9062 148.287 77.6034 147.028 78.8535C145.768 80.1037 144.062 80.8046 142.284 80.8022H66.4746ZM66.6059 65.7009C66.609 66.6811 67.0021 67.62 67.699 68.312C68.3959 69.004 69.3398 69.3926 70.3238 69.3926H83.8411C84.824 69.3926 85.7666 69.0036 86.4617 68.3113C87.1567 67.619 87.5472 66.68 87.5472 65.7009C87.5472 64.7218 87.1567 63.7828 86.4617 63.0905C85.7666 62.3982 84.824 62.0092 83.8411 62.0092H70.3238C69.339 62.0085 68.3942 62.3972 67.6968 63.0899C66.9995 63.7825 66.6066 64.7226 66.6045 65.7035L66.6059 65.7009ZM70.3238 68.722C69.5194 68.722 68.748 68.4037 68.1792 67.8371C67.6104 67.2706 67.2909 66.5021 67.2909 65.7009C67.2909 64.8997 67.6104 64.1313 68.1792 63.5647C68.748 62.9981 69.5194 62.6799 70.3238 62.6799H83.8411C84.6454 62.6799 85.4168 62.9981 85.9856 63.5647C86.5544 64.1313 86.8739 64.8997 86.8739 65.7009C86.8739 66.5021 86.5544 67.2706 85.9856 67.8371C85.4168 68.4037 84.6454 68.722 83.8411 68.722H70.3238Z" fill="#092A53"/>
<path d="M67.1133 37.8657C69.3904 37.5157 71.72 37.9121 73.7512 38.9952C75.6647 40.2671 77.1096 42.1258 77.8668 44.2895L77.9862 44.6555L77.6043 44.7222C77.0599 44.8067 76.5096 44.8469 75.9586 44.8425C74.2122 44.8756 72.4884 44.4442 70.9651 43.5928C69.0521 42.3207 67.6077 40.462 66.8509 38.2984L66.7314 37.9324L67.1133 37.8657Z" fill="#24B47E"/>
<path d="M142.154 68.6448C142.148 69.7133 141.718 70.7359 140.958 71.4902C140.199 72.2445 139.171 72.6694 138.098 72.6725H127.957C126.885 72.6694 125.857 72.2445 125.097 71.4902C124.337 70.7359 123.907 69.7133 123.901 68.6448V62.6067C123.907 61.5382 124.337 60.5156 125.097 59.7613C125.857 59.007 126.885 58.5821 127.957 58.579H138.098C139.171 58.5821 140.199 59.007 140.958 59.7613C141.718 60.5156 142.148 61.5382 142.154 62.6067V68.6448Z" fill="#24B47E"/>
<path d="M126.477 69.7508C126.163 69.7508 125.863 69.6268 125.641 69.4062C125.42 69.1855 125.295 68.8863 125.295 68.5742C125.295 68.2622 125.42 67.9629 125.641 67.7423C125.863 67.5217 126.163 67.3977 126.477 67.3977H130.873C131.186 67.3977 131.487 67.5217 131.708 67.7423C131.93 67.9629 132.054 68.2622 132.054 68.5742C132.054 68.8863 131.93 69.1855 131.708 69.4062C131.487 69.6268 131.186 69.7508 130.873 69.7508H126.477Z" fill="#092A53"/>
<path d="M134.587 69.7508C134.38 69.7508 134.176 69.6964 133.996 69.593C133.816 69.4896 133.667 69.341 133.564 69.1619C133.46 68.9829 133.406 68.7798 133.406 68.5731C133.406 68.3665 133.461 68.1635 133.565 67.9847C133.669 67.8061 133.818 67.6579 133.997 67.5549C134.177 67.4519 134.38 67.3977 134.587 67.3977H138.986C139.299 67.3977 139.6 67.5217 139.821 67.7423C140.043 67.9629 140.167 68.2622 140.167 68.5742C140.167 68.8863 140.043 69.1855 139.821 69.4062C139.6 69.6268 139.299 69.7508 138.986 69.7508H134.587Z" fill="#092A53"/>
<path d="M126.477 66.7298C126.163 66.7298 125.863 66.6058 125.641 66.3852C125.42 66.1645 125.295 65.8653 125.295 65.5532C125.295 65.2412 125.42 64.9419 125.641 64.7213C125.863 64.5007 126.163 64.3767 126.477 64.3767H130.873C131.186 64.3767 131.487 64.5007 131.708 64.7213C131.93 64.9419 132.054 65.2412 132.054 65.5532C132.054 65.8653 131.93 66.1645 131.708 66.3852C131.487 66.6058 131.186 66.7298 130.873 66.7298H126.477Z" fill="#092A53"/>
<path d="M134.587 66.7298C134.38 66.7298 134.176 66.6754 133.996 66.572C133.816 66.4686 133.667 66.32 133.564 66.1409C133.46 65.9619 133.406 65.7588 133.406 65.5521C133.406 65.3455 133.461 65.1425 133.565 64.9637C133.669 64.7851 133.818 64.6369 133.997 64.5339C134.177 64.4309 134.38 64.3767 134.587 64.3767H138.986C139.299 64.3767 139.6 64.5007 139.821 64.7213C140.043 64.9419 140.167 65.2412 140.167 65.5532C140.167 65.8653 140.043 66.1645 139.821 66.3852C139.6 66.6058 139.299 66.7298 138.986 66.7298H134.587Z" fill="#092A53"/>
<path d="M126.477 63.71C126.163 63.71 125.863 63.586 125.641 63.3654C125.42 63.1447 125.295 62.8455 125.295 62.5335C125.295 62.2214 125.42 61.9222 125.641 61.7015C125.863 61.4809 126.163 61.3569 126.477 61.3569H130.873C131.186 61.3569 131.487 61.4809 131.708 61.7015C131.93 61.9222 132.054 62.2214 132.054 62.5335C132.054 62.8455 131.93 63.1447 131.708 63.3654C131.487 63.586 131.186 63.71 130.873 63.71H126.477Z" fill="#092A53"/>
<path d="M134.587 63.71C134.38 63.71 134.176 63.6556 133.996 63.5522C133.816 63.4489 133.667 63.3002 133.564 63.1211C133.46 62.9421 133.406 62.739 133.406 62.5324C133.406 62.3257 133.461 62.1227 133.565 61.9439C133.669 61.7654 133.818 61.6171 133.997 61.5141C134.177 61.4111 134.38 61.3569 134.587 61.3569H138.986C139.299 61.3569 139.6 61.4809 139.821 61.7015C140.043 61.9222 140.167 62.2214 140.167 62.5335C140.167 62.8455 140.043 63.1447 139.821 63.3654C139.6 63.586 139.299 63.71 138.986 63.71H134.587Z" fill="#092A53"/>
<path d="M11.7613 114.269L10.2586 113.481C9.86755 115.026 9.70747 116.621 9.78354 118.213C9.81097 118.418 9.90138 118.609 10.0424 118.761C10.1833 118.913 10.368 119.017 10.571 119.06C14.0369 119.869 30.5595 123.314 41.9206 118.461C42.0816 118.395 42.2222 118.288 42.3283 118.15C42.4342 118.012 42.5019 117.849 42.5243 117.677C42.5567 116.259 42.3708 114.845 41.9731 113.483C41.5439 112.434 11.7613 114.269 11.7613 114.269Z" fill="#FBD56F"/>
<path opacity="0.1" d="M11.7613 114.269L10.2586 113.481C9.86755 115.026 9.70747 116.621 9.78354 118.213C9.81097 118.418 9.90138 118.609 10.0424 118.761C10.1833 118.913 10.368 119.017 10.571 119.06C14.0369 119.869 30.5595 123.314 41.9206 118.461C42.0816 118.395 42.2222 118.288 42.3283 118.15C42.4342 118.012 42.5019 117.849 42.5243 117.677C42.5567 116.259 42.3708 114.845 41.9731 113.483C41.5439 112.434 11.7613 114.269 11.7613 114.269Z" fill="black"/>
<path d="M25.4827 117.08C34.1802 117.08 41.231 115.324 41.231 113.158C41.231 110.992 34.1802 109.236 25.4827 109.236C16.7851 109.236 9.73438 110.992 9.73438 113.158C9.73438 115.324 16.7851 117.08 25.4827 117.08Z" fill="#FBD56F"/>
<path d="M17.0113 107.733L15.5086 106.945C15.1175 108.49 14.9575 110.085 15.0335 111.677C15.061 111.882 15.1514 112.073 15.2924 112.225C15.4333 112.376 15.618 112.481 15.821 112.524C19.2869 113.333 35.8095 116.778 47.1706 111.925C47.3316 111.859 47.4722 111.751 47.5783 111.614C47.6842 111.476 47.7519 111.313 47.7743 111.141C47.8067 109.723 47.6208 108.309 47.2231 106.947C46.7939 105.897 17.0113 107.733 17.0113 107.733Z" fill="#FBD56F"/>
<path opacity="0.1" d="M17.0113 107.733L15.5086 106.945C15.1175 108.49 14.9575 110.085 15.0335 111.677C15.061 111.882 15.1514 112.073 15.2924 112.225C15.4333 112.376 15.618 112.481 15.821 112.524C19.2869 113.333 35.8095 116.778 47.1706 111.925C47.3316 111.859 47.4722 111.751 47.5783 111.614C47.6842 111.476 47.7519 111.313 47.7743 111.141C47.8067 109.723 47.6208 108.309 47.2231 106.947C46.7939 105.897 17.0113 107.733 17.0113 107.733Z" fill="black"/>
<path d="M30.7322 110.543C39.4297 110.543 46.4805 108.788 46.4805 106.622C46.4805 104.456 39.4297 102.7 30.7322 102.7C22.0346 102.7 14.9839 104.456 14.9839 106.622C14.9839 108.788 22.0346 110.543 30.7322 110.543Z" fill="#FBD56F"/>
<path d="M10.4493 99.8893L8.9466 99.1011C8.55553 100.647 8.39545 102.241 8.47153 103.833C8.49896 104.038 8.58936 104.23 8.73034 104.381C8.87133 104.533 9.05597 104.637 9.25894 104.68C12.7249 105.49 29.2475 108.934 40.6086 104.082C40.7696 104.015 40.9102 103.908 41.0162 103.77C41.1222 103.633 41.1899 103.469 41.2123 103.297C41.2447 101.88 41.0588 100.465 40.6611 99.1037C40.2319 98.054 10.4493 99.8893 10.4493 99.8893Z" fill="#FBD56F"/>
<path opacity="0.1" d="M10.4493 99.8893L8.9466 99.1011C8.55553 100.647 8.39545 102.241 8.47153 103.833C8.49896 104.038 8.58936 104.23 8.73034 104.381C8.87133 104.533 9.05597 104.637 9.25894 104.68C12.7249 105.49 29.2475 108.934 40.6086 104.082C40.7696 104.015 40.9102 103.908 41.0162 103.77C41.1222 103.633 41.1899 103.469 41.2123 103.297C41.2447 101.88 41.0588 100.465 40.6611 99.1037C40.2319 98.054 10.4493 99.8893 10.4493 99.8893Z" fill="black"/>
<path d="M25.4827 102.7C34.1802 102.7 41.231 100.944 41.231 98.7782C41.231 96.6123 34.1802 94.8564 25.4827 94.8564C16.7851 94.8564 9.73438 96.6123 9.73438 98.7782C9.73438 100.944 16.7851 102.7 25.4827 102.7Z" fill="#FBD56F"/>
<path d="M23.5728 94.6603L22.0701 93.8721C21.6791 95.4176 21.519 97.0122 21.5951 98.6043C21.6225 98.8092 21.7129 99.0006 21.8539 99.1522C21.9949 99.3039 22.1795 99.4084 22.3825 99.4514C25.8484 100.261 42.371 103.705 53.7321 98.8527C53.8931 98.7864 54.0338 98.679 54.1398 98.5413C54.2458 98.4036 54.3134 98.2404 54.3358 98.0683C54.3683 96.6506 54.1824 95.2363 53.7846 93.8747C53.3555 92.825 23.5728 94.6603 23.5728 94.6603Z" fill="#FBD56F"/>
<path opacity="0.1" d="M23.5728 94.6603L22.0701 93.8721C21.6791 95.4176 21.519 97.0122 21.5951 98.6043C21.6225 98.8092 21.7129 99.0006 21.8539 99.1522C21.9949 99.3039 22.1795 99.4084 22.3825 99.4514C25.8484 100.261 42.371 103.705 53.7321 98.8527C53.8931 98.7864 54.0338 98.679 54.1398 98.5413C54.2458 98.4036 54.3134 98.2404 54.3358 98.0683C54.3683 96.6506 54.1824 95.2363 53.7846 93.8747C53.3555 92.825 23.5728 94.6603 23.5728 94.6603Z" fill="black"/>
<path d="M38.6062 97.4709C47.3038 97.4709 54.3545 95.7151 54.3545 93.5492C54.3545 91.3833 47.3038 89.6274 38.6062 89.6274C29.9087 89.6274 22.8579 91.3833 22.8579 93.5492C22.8579 95.7151 29.9087 97.4709 38.6062 97.4709Z" fill="#FBD56F"/>
<path d="M14.3863 90.7386L12.8836 89.9503C12.4925 91.4959 12.3325 93.0904 12.4085 94.6825C12.436 94.8874 12.5264 95.0788 12.6674 95.2305C12.8083 95.3822 12.993 95.4866 13.196 95.5296C16.6619 96.3388 33.1845 99.7834 44.5456 94.9309C44.7066 94.8647 44.8472 94.7573 44.9533 94.6196C45.0592 94.4818 45.1269 94.3187 45.1493 94.1466C45.1817 92.7288 44.9958 91.3145 44.5981 89.9529C44.1689 88.9032 14.3863 90.7386 14.3863 90.7386Z" fill="#FBD56F"/>
<path opacity="0.1" d="M14.3863 90.7386L12.8836 89.9503C12.4925 91.4959 12.3325 93.0904 12.4085 94.6825C12.436 94.8874 12.5264 95.0788 12.6674 95.2305C12.8083 95.3822 12.993 95.4866 13.196 95.5296C16.6619 96.3388 33.1845 99.7834 44.5456 94.9309C44.7066 94.8647 44.8472 94.7573 44.9533 94.6196C45.0592 94.4818 45.1269 94.3187 45.1493 94.1466C45.1817 92.7288 44.9958 91.3145 44.5981 89.9529C44.1689 88.9032 14.3863 90.7386 14.3863 90.7386Z" fill="black"/>
<path d="M29.4197 93.5492C38.1172 93.5492 45.168 91.7933 45.168 89.6274C45.168 87.4615 38.1172 85.7057 29.4197 85.7057C20.7221 85.7057 13.6714 87.4615 13.6714 89.6274C13.6714 91.7933 20.7221 93.5492 29.4197 93.5492Z" fill="#FBD56F"/>
<path d="M20.9483 82.8951L19.4456 82.1069C19.0546 83.6524 18.8945 85.247 18.9705 86.8391C18.998 87.044 19.0884 87.2354 19.2294 87.3871C19.3703 87.5387 19.555 87.6432 19.758 87.6862C23.2239 88.4954 39.7465 91.94 51.1076 87.0875C51.2686 87.0212 51.4093 86.9138 51.5153 86.7761C51.6213 86.6384 51.6889 86.4752 51.7113 86.3031C51.7438 84.8854 51.5579 83.4711 51.1601 82.1095C50.7309 81.0598 20.9483 82.8951 20.9483 82.8951Z" fill="#FBD56F"/>
<path opacity="0.1" d="M20.9483 82.8951L19.4456 82.1069C19.0546 83.6524 18.8945 85.247 18.9705 86.8391C18.998 87.044 19.0884 87.2354 19.2294 87.3871C19.3703 87.5387 19.555 87.6432 19.758 87.6862C23.2239 88.4954 39.7465 91.94 51.1076 87.0875C51.2686 87.0212 51.4093 86.9138 51.5153 86.7761C51.6213 86.6384 51.6889 86.4752 51.7113 86.3031C51.7438 84.8854 51.5579 83.4711 51.1601 82.1095C50.7309 81.0598 20.9483 82.8951 20.9483 82.8951Z" fill="black"/>
<path d="M35.9812 85.7057C44.6788 85.7057 51.7295 83.9498 51.7295 81.7839C51.7295 79.618 44.6788 77.8622 35.9812 77.8622C27.2837 77.8622 20.2329 79.618 20.2329 81.7839C20.2329 83.9498 27.2837 85.7057 35.9812 85.7057Z" fill="#FBD56F"/>
<path d="M23.5728 73.7444L22.0701 72.9561C21.6791 74.5017 21.519 76.0962 21.5951 77.6883C21.6225 77.8932 21.7129 78.0846 21.8539 78.2363C21.9949 78.3879 22.1795 78.4924 22.3825 78.5354C25.8484 79.3446 42.371 82.7892 53.7321 77.9367C53.8931 77.8705 54.0338 77.7631 54.1398 77.6253C54.2458 77.4876 54.3134 77.3245 54.3358 77.1524C54.3683 75.7346 54.1824 74.3203 53.7846 72.9587C53.3555 71.909 23.5728 73.7444 23.5728 73.7444Z" fill="#FBD56F"/>
<path opacity="0.1" d="M23.5728 73.7444L22.0701 72.9561C21.6791 74.5017 21.519 76.0962 21.5951 77.6883C21.6225 77.8932 21.7129 78.0846 21.8539 78.2363C21.9949 78.3879 22.1795 78.4924 22.3825 78.5354C25.8484 79.3446 42.371 82.7892 53.7321 77.9367C53.8931 77.8705 54.0338 77.7631 54.1398 77.6253C54.2458 77.4876 54.3134 77.3245 54.3358 77.1524C54.3683 75.7346 54.1824 74.3203 53.7846 72.9587C53.3555 71.909 23.5728 73.7444 23.5728 73.7444Z" fill="black"/>
<path d="M38.6062 76.5549C47.3038 76.5549 54.3545 74.7991 54.3545 72.6332C54.3545 70.4673 47.3038 68.7115 38.6062 68.7115C29.9087 68.7115 22.8579 70.4673 22.8579 72.6332C22.8579 74.7991 29.9087 76.5549 38.6062 76.5549Z" fill="#FBD56F"/>
</g>
<defs>
<clipPath id="clip0">
<rect width="149" height="121" fill="white"/>
</clipPath>
</defs>
</svg>
