<svg width="109" height="24" viewBox="0 0 109 24" fill="none" xmlns="http://www.w3.org/2000/svg">
<path d="M7.05648 16.5998C10.9932 16.5998 13.4133 14.5104 13.4133 11.7518C13.2966 5.86224 4.34465 7.69056 4.34465 4.7592C4.34465 3.8304 5.13199 3.2232 6.64804 3.2232C8.25178 3.2232 9.2431 4.06464 9.36132 5.31264H13.2685C13.0335 2.11872 10.6724 0 6.76481 0C2.76998 0 0.378891 2.14752 0.378891 4.81728C0.378891 10.7088 9.5062 8.88 9.5062 11.7533C9.5062 12.6821 8.63164 13.4074 7.02741 13.4074C5.3946 13.4074 4.25744 12.4786 4.1116 11.2598H0C0.17491 14.2493 3.004 16.5998 7.05648 16.5998Z" fill="#072A52"/>
<path d="M20.8482 23.9999V14.0457C21.4743 14.8548 22.2831 15.5073 23.2098 15.9508C24.1364 16.3943 25.1551 16.6164 26.1841 16.5993C30.3248 16.5993 33.5614 13.2619 33.5614 8.24155C33.5614 3.22123 30.3248 -5.13815e-05 26.1841 -5.13815e-05C25.1508 -0.0250419 24.1266 0.196582 23.1979 0.646117C22.2692 1.09565 21.4633 1.75991 20.8482 2.58283V0.261069H16.7656V23.9999H20.8482Z" fill="#092A53"/>
<path d="M25.1051 13.0306C22.918 13.0306 20.8477 11.3458 20.8477 8.30022C20.8477 5.25462 22.918 3.56982 25.1051 3.56982C27.3213 3.56982 29.3916 5.1951 29.3916 8.24214C29.3916 11.2892 27.3213 13.0306 25.1051 13.0306Z" fill="white"/>
<path d="M43.5937 16.5998C47.5886 16.5998 50.2713 14.2478 51.1459 11.2891H46.7431C46.4669 11.9006 46.0093 12.4143 45.4311 12.7617C44.8529 13.1091 44.1815 13.2737 43.5065 13.2336C41.4653 13.2336 39.8324 11.8987 39.6304 9.51888H51.4376C51.5199 9.00055 51.559 8.47637 51.5543 7.95168C51.5543 3.1632 48.2591 0 43.5937 0C38.8116 0 35.4873 3.22128 35.4873 8.29968C35.4873 13.3493 38.8988 16.5998 43.5937 16.5998Z" fill="#092A53"/>
<path d="M47.3252 6.791H39.6562C39.977 4.5854 41.5226 3.3374 43.4762 3.3374C45.5756 3.3374 47.267 4.67228 47.3252 6.791Z" fill="white"/>
<path d="M58.6099 16.3381V7.45814C58.6099 4.87526 60.0387 3.4823 62.2549 3.4823C64.4129 3.4823 65.8403 4.8743 65.8403 7.45814V16.3381H69.9228V6.90662C69.9233 2.46662 67.241 0.0286989 63.4792 0.0286989C62.5485 0.00291497 61.6244 0.191266 60.7795 0.578958C59.9346 0.966649 59.1919 1.54312 58.6099 2.2631V0.261019H54.5273V16.3381H58.6099Z" fill="#092A53"/>
<path d="M77.8833 16.3381V7.45814C77.8833 4.87526 79.3121 3.4823 81.5283 3.4823C83.6863 3.4823 85.1137 4.8743 85.1137 7.45814V16.3381H89.1962V6.90662C89.1967 2.46662 86.5145 0.0286989 82.7527 0.0286989C81.8219 0.00291497 80.8978 0.191266 80.0529 0.578958C79.208 0.966649 78.4654 1.54312 77.8833 2.2631V0.261019H73.8008V16.3381H77.8833Z" fill="#092A53"/>
<path d="M98.5295 23.9418L106.249 5.66483L103.686 1.44083L99.9584 11.493L95.7886 0.260986H91.2104L97.6841 15.932L94.1849 23.9418H98.5295Z" fill="#092A53"/>
<path d="M104.656 0.47998H109.001L107.208 4.70158L104.656 0.47998Z" fill="#29B473"/>
</svg>
