<svg width="164" height="123" viewBox="0 0 164 123" fill="none" xmlns="http://www.w3.org/2000/svg">
<g clip-path="url(#clip0)">
<path d="M137.3 108.376L136.374 107.861C136.135 108.872 136.037 109.911 136.084 110.949C136.098 111.079 136.151 111.201 136.236 111.3C136.322 111.399 136.435 111.469 136.562 111.501C138.687 112.028 148.819 114.276 155.786 111.111C155.887 111.065 155.975 110.993 156.039 110.903C156.104 110.813 156.144 110.707 156.156 110.597C156.177 109.674 156.064 108.752 155.821 107.861C155.562 107.173 137.3 108.376 137.3 108.376Z" fill="#FCD669"/>
<path opacity="0.1" d="M137.3 108.376L136.374 107.861C136.135 108.872 136.037 109.911 136.084 110.949C136.098 111.079 136.151 111.201 136.236 111.3C136.322 111.399 136.435 111.469 136.562 111.501C138.687 112.028 148.819 114.276 155.786 111.111C155.887 111.065 155.975 110.993 156.039 110.903C156.104 110.813 156.144 110.707 156.156 110.597C156.177 109.674 156.064 108.752 155.821 107.861C155.562 107.173 137.3 108.376 137.3 108.376Z" fill="black"/>
<path d="M146.097 110.054C151.466 110.054 155.819 109.073 155.819 107.863C155.819 106.653 151.466 105.672 146.097 105.672C140.727 105.672 136.374 106.653 136.374 107.863C136.374 109.073 140.727 110.054 146.097 110.054Z" fill="#FCD669"/>
<path d="M140.582 104.128L139.656 103.613C139.417 104.624 139.319 105.663 139.367 106.701C139.38 106.831 139.433 106.953 139.518 107.052C139.604 107.151 139.718 107.221 139.844 107.253C141.969 107.78 152.101 110.028 159.068 106.863C159.169 106.817 159.257 106.745 159.322 106.655C159.386 106.565 159.426 106.459 159.438 106.349C159.459 105.426 159.346 104.504 159.103 103.613C158.844 102.925 140.582 104.128 140.582 104.128Z" fill="#FCD669"/>
<path opacity="0.1" d="M140.582 104.128L139.656 103.613C139.417 104.624 139.319 105.663 139.367 106.701C139.38 106.831 139.433 106.953 139.518 107.052C139.604 107.151 139.718 107.221 139.844 107.253C141.969 107.78 152.101 110.028 159.068 106.863C159.169 106.817 159.257 106.745 159.322 106.655C159.386 106.565 159.426 106.459 159.438 106.349C159.459 105.426 159.346 104.504 159.103 103.613C158.844 102.925 140.582 104.128 140.582 104.128Z" fill="black"/>
<path d="M149.381 105.804C154.751 105.804 159.104 104.823 159.104 103.613C159.104 102.403 154.751 101.422 149.381 101.422C144.012 101.422 139.659 102.403 139.659 103.613C139.659 104.823 144.012 105.804 149.381 105.804Z" fill="#FCD669"/>
<path d="M136.947 99.7044L136.021 99.1901C135.782 100.201 135.684 101.24 135.731 102.277C135.745 102.407 135.798 102.53 135.883 102.629C135.969 102.728 136.082 102.798 136.209 102.83C138.334 103.357 148.466 105.605 155.433 102.44C155.534 102.394 155.621 102.322 155.686 102.232C155.751 102.142 155.791 102.036 155.803 101.926C155.824 101.002 155.711 100.081 155.468 99.1901C155.208 98.5023 136.947 99.7044 136.947 99.7044Z" fill="#FCD669"/>
<path opacity="0.1" d="M136.947 99.7044L136.021 99.1901C135.782 100.201 135.684 101.24 135.731 102.277C135.745 102.407 135.798 102.53 135.883 102.629C135.969 102.728 136.082 102.798 136.209 102.83C138.334 103.357 148.466 105.605 155.433 102.44C155.534 102.394 155.621 102.322 155.686 102.232C155.751 102.142 155.791 102.036 155.803 101.926C155.824 101.002 155.711 100.081 155.468 99.1901C155.208 98.5023 136.947 99.7044 136.947 99.7044Z" fill="black"/>
<path d="M145.743 101.383C151.112 101.383 155.465 100.402 155.465 99.1916C155.465 97.9816 151.112 97.0007 145.743 97.0007C140.373 97.0007 136.02 97.9816 136.02 99.1916C136.02 100.402 140.373 101.383 145.743 101.383Z" fill="#FCD669"/>
<path d="M145.128 96.1553L144.202 95.641C143.963 96.6517 143.865 97.6908 143.912 98.7283C143.926 98.8583 143.979 98.981 144.064 99.0798C144.15 99.1787 144.264 99.2488 144.39 99.2808C146.515 99.8078 156.647 102.056 163.614 98.8907C163.715 98.8447 163.803 98.773 163.867 98.6827C163.932 98.5925 163.972 98.4869 163.984 98.3764C164.005 97.4533 163.892 96.5319 163.649 95.641C163.39 94.9532 145.128 96.1553 145.128 96.1553Z" fill="#FCD669"/>
<path opacity="0.1" d="M145.128 96.1553L144.202 95.641C143.963 96.6517 143.865 97.6908 143.912 98.7283C143.926 98.8583 143.979 98.981 144.064 99.0798C144.15 99.1787 144.264 99.2488 144.39 99.2808C146.515 99.8078 156.647 102.056 163.614 98.8907C163.715 98.8447 163.803 98.773 163.867 98.6827C163.932 98.5925 163.972 98.4869 163.984 98.3764C164.005 97.4533 163.892 96.5319 163.649 95.641C163.39 94.9532 145.128 96.1553 145.128 96.1553Z" fill="black"/>
<path d="M153.927 97.8335C159.297 97.8335 163.65 96.8526 163.65 95.6426C163.65 94.4326 159.297 93.4517 153.927 93.4517C148.558 93.4517 144.205 94.4326 144.205 95.6426C144.205 96.8526 148.558 97.8335 153.927 97.8335Z" fill="#FCD669"/>
<path d="M139.599 93.7702L138.674 93.2559C138.434 94.2666 138.336 95.3056 138.384 96.3432C138.397 96.4732 138.45 96.5959 138.535 96.6947C138.621 96.7935 138.735 96.8637 138.861 96.8957C140.986 97.4227 151.118 99.6709 158.085 96.5056C158.187 96.4595 158.274 96.3878 158.339 96.2976C158.403 96.2074 158.444 96.1018 158.455 95.9913C158.476 95.0681 158.363 94.1468 158.12 93.2559C157.861 92.5681 139.599 93.7702 139.599 93.7702Z" fill="#FCD669"/>
<path opacity="0.1" d="M139.599 93.7702L138.674 93.2559C138.434 94.2666 138.336 95.3056 138.384 96.3432C138.397 96.4732 138.45 96.5959 138.535 96.6947C138.621 96.7935 138.735 96.8637 138.861 96.8957C140.986 97.4227 151.118 99.6709 158.085 96.5056C158.187 96.4595 158.274 96.3878 158.339 96.2976C158.403 96.2074 158.444 96.1018 158.455 95.9913C158.476 95.0681 158.363 94.1468 158.12 93.2559C157.861 92.5681 139.599 93.7702 139.599 93.7702Z" fill="black"/>
<path d="M148.398 95.4468C153.768 95.4468 158.121 94.4659 158.121 93.2559C158.121 92.0459 153.768 91.065 148.398 91.065C143.029 91.065 138.676 92.0459 138.676 93.2559C138.676 94.4659 143.029 95.4468 148.398 95.4468Z" fill="#FCD669"/>
<path d="M143.292 89.1655L142.366 88.6512C142.127 89.6619 142.029 90.701 142.076 91.7385C142.09 91.8685 142.143 91.9912 142.228 92.09C142.314 92.1889 142.428 92.259 142.554 92.291C144.679 92.818 154.811 95.0662 161.778 91.9009C161.879 91.8549 161.967 91.7832 162.032 91.6929C162.096 91.6027 162.136 91.4971 162.148 91.3866C162.169 90.4635 162.056 89.5421 161.813 88.6512C161.554 87.9634 143.292 89.1655 143.292 89.1655Z" fill="#FCD669"/>
<path opacity="0.1" d="M143.292 89.1655L142.366 88.6512C142.127 89.6619 142.029 90.701 142.076 91.7385C142.09 91.8685 142.143 91.9912 142.228 92.09C142.314 92.1889 142.428 92.259 142.554 92.291C144.679 92.818 154.811 95.0662 161.778 91.9009C161.879 91.8549 161.967 91.7832 162.032 91.6929C162.096 91.6027 162.136 91.4971 162.148 91.3866C162.169 90.4635 162.056 89.5421 161.813 88.6512C161.554 87.9634 143.292 89.1655 143.292 89.1655Z" fill="black"/>
<path d="M152.089 90.8421C157.459 90.8421 161.812 89.8612 161.812 88.6512C161.812 87.4412 157.459 86.4603 152.089 86.4603C146.719 86.4603 142.366 87.4412 142.366 88.6512C142.366 89.8612 146.719 90.8421 152.089 90.8421Z" fill="#FCD669"/>
<path d="M145.111 83.6994L144.185 83.1852C143.946 84.1958 143.848 85.2349 143.895 86.2725C143.909 86.4024 143.962 86.5251 144.047 86.624C144.133 86.7228 144.246 86.793 144.373 86.8249C146.498 87.352 156.63 89.6002 163.597 86.4349C163.698 86.3888 163.786 86.3171 163.85 86.2269C163.915 86.1367 163.955 86.0311 163.967 85.9206C163.988 84.9974 163.875 84.076 163.632 83.1852C163.373 82.4973 145.111 83.6994 145.111 83.6994Z" fill="#FCD669"/>
<path opacity="0.1" d="M145.111 83.6994L144.185 83.1852C143.946 84.1958 143.848 85.2349 143.895 86.2725C143.909 86.4024 143.962 86.5251 144.047 86.624C144.133 86.7228 144.246 86.793 144.373 86.8249C146.498 87.352 156.63 89.6002 163.597 86.4349C163.698 86.3888 163.786 86.3171 163.85 86.2269C163.915 86.1367 163.955 86.0311 163.967 85.9206C163.988 84.9974 163.875 84.076 163.632 83.1852C163.373 82.4973 145.111 83.6994 145.111 83.6994Z" fill="black"/>
<path d="M153.909 85.376C159.279 85.376 163.632 84.3951 163.632 83.1851C163.632 81.9752 159.279 80.9943 153.909 80.9943C148.54 80.9943 144.187 81.9752 144.187 83.1851C144.187 84.3951 148.54 85.376 153.909 85.376Z" fill="#FCD669"/>
<path d="M104.225 107.974C109.131 107.974 113.108 103.754 113.108 98.5484C113.108 93.3426 109.131 89.1225 104.225 89.1225C99.3185 89.1225 95.3413 93.3426 95.3413 98.5484C95.3413 103.754 99.3185 107.974 104.225 107.974Z" fill="#FCD669"/>
<path opacity="0.1" d="M104.225 107.974C109.131 107.974 113.108 103.754 113.108 98.5484C113.108 93.3426 109.131 89.1225 104.225 89.1225C99.3185 89.1225 95.3413 93.3426 95.3413 98.5484C95.3413 103.754 99.3185 107.974 104.225 107.974Z" fill="black"/>
<path d="M105.756 107.974C110.662 107.974 114.64 103.848 114.64 98.7585C114.64 93.6688 110.662 89.5428 105.756 89.5428C100.85 89.5428 96.873 93.6688 96.873 98.7585C96.873 103.848 100.85 107.974 105.756 107.974Z" fill="#FCD669"/>
<path d="M109.356 107.108L108.43 106.594C108.191 107.604 108.093 108.644 108.14 109.681C108.154 109.811 108.207 109.934 108.292 110.033C108.378 110.131 108.492 110.202 108.618 110.234C110.743 110.761 120.875 113.009 127.842 109.843C127.943 109.797 128.031 109.726 128.095 109.636C128.16 109.545 128.2 109.44 128.212 109.329C128.233 108.406 128.12 107.485 127.877 106.594C127.618 105.906 109.356 107.108 109.356 107.108Z" fill="#FCD669"/>
<path opacity="0.1" d="M109.356 107.108L108.43 106.594C108.191 107.604 108.093 108.644 108.14 109.681C108.154 109.811 108.207 109.934 108.292 110.033C108.378 110.131 108.492 110.202 108.618 110.234C110.743 110.761 120.875 113.009 127.842 109.843C127.943 109.797 128.031 109.726 128.095 109.636C128.16 109.545 128.2 109.44 128.212 109.329C128.233 108.406 128.12 107.485 127.877 106.594C127.618 105.906 109.356 107.108 109.356 107.108Z" fill="black"/>
<path d="M118.154 108.786C123.524 108.786 127.877 107.805 127.877 106.595C127.877 105.385 123.524 104.405 118.154 104.405C112.785 104.405 108.432 105.385 108.432 106.595C108.432 107.805 112.785 108.786 118.154 108.786Z" fill="#FCD669"/>
<path d="M113.07 103.876L112.145 103.362C111.905 104.372 111.808 105.411 111.855 106.449C111.868 106.579 111.921 106.702 112.007 106.8C112.092 106.899 112.206 106.969 112.333 107.001C114.458 107.528 124.59 109.777 131.557 106.611C131.658 106.565 131.745 106.494 131.81 106.403C131.875 106.313 131.915 106.208 131.926 106.097C131.947 105.174 131.835 104.252 131.592 103.362C131.332 102.674 113.07 103.876 113.07 103.876Z" fill="#FCD669"/>
<path opacity="0.1" d="M113.07 103.876L112.145 103.362C111.905 104.372 111.808 105.411 111.855 106.449C111.868 106.579 111.921 106.702 112.007 106.8C112.092 106.899 112.206 106.969 112.333 107.001C114.458 107.528 124.59 109.777 131.557 106.611C131.658 106.565 131.745 106.494 131.81 106.403C131.875 106.313 131.915 106.208 131.926 106.097C131.947 105.174 131.835 104.252 131.592 103.362C131.332 102.674 113.07 103.876 113.07 103.876Z" fill="black"/>
<path d="M121.869 105.554C127.238 105.554 131.591 104.573 131.591 103.363C131.591 102.153 127.238 101.172 121.869 101.172C116.499 101.172 112.146 102.153 112.146 103.363C112.146 104.573 116.499 105.554 121.869 105.554Z" fill="#FCD669"/>
<path d="M116.355 99.6278L115.43 99.1136C115.19 100.124 115.093 101.163 115.14 102.201C115.153 102.331 115.206 102.454 115.292 102.552C115.377 102.651 115.491 102.721 115.618 102.753C117.743 103.28 127.875 105.529 134.842 102.363C134.943 102.317 135.03 102.245 135.095 102.155C135.16 102.065 135.2 101.959 135.211 101.849C135.232 100.926 135.12 100.004 134.877 99.1136C134.617 98.4257 116.355 99.6278 116.355 99.6278Z" fill="#FCD669"/>
<path opacity="0.1" d="M116.355 99.6278L115.43 99.1136C115.19 100.124 115.093 101.163 115.14 102.201C115.153 102.331 115.206 102.454 115.292 102.552C115.377 102.651 115.491 102.721 115.618 102.753C117.743 103.28 127.875 105.529 134.842 102.363C134.943 102.317 135.03 102.245 135.095 102.155C135.16 102.065 135.2 101.959 135.211 101.849C135.232 100.926 135.12 100.004 134.877 99.1136C134.617 98.4257 116.355 99.6278 116.355 99.6278Z" fill="black"/>
<path d="M125.154 101.304C130.524 101.304 134.876 100.324 134.876 99.1135C134.876 97.9036 130.524 96.9227 125.154 96.9227C119.784 96.9227 115.431 97.9036 115.431 99.1135C115.431 100.324 119.784 101.304 125.154 101.304Z" fill="#FCD669"/>
<path d="M112.719 95.2047L111.793 94.6905C111.554 95.7011 111.456 96.7402 111.503 97.7778C111.517 97.9077 111.57 98.0304 111.655 98.1293C111.741 98.2281 111.854 98.2983 111.981 98.3303C114.106 98.8573 124.238 101.105 131.205 97.9402C131.306 97.8941 131.393 97.8224 131.458 97.7322C131.523 97.642 131.563 97.5364 131.575 97.4259C131.596 96.5027 131.483 95.5814 131.24 94.6905C130.98 94.0026 112.719 95.2047 112.719 95.2047Z" fill="#FCD669"/>
<path opacity="0.1" d="M112.719 95.2047L111.793 94.6905C111.554 95.7011 111.456 96.7402 111.503 97.7778C111.517 97.9077 111.57 98.0304 111.655 98.1293C111.741 98.2281 111.854 98.2983 111.981 98.3303C114.106 98.8573 124.238 101.105 131.205 97.9402C131.306 97.8941 131.393 97.8224 131.458 97.7322C131.523 97.642 131.563 97.5364 131.575 97.4259C131.596 96.5027 131.483 95.5814 131.24 94.6905C130.98 94.0026 112.719 95.2047 112.719 95.2047Z" fill="black"/>
<path d="M121.516 96.8829C126.885 96.8829 131.238 95.902 131.238 94.692C131.238 93.482 126.885 92.5011 121.516 92.5011C116.146 92.5011 111.793 93.482 111.793 94.692C111.793 95.902 116.146 96.8829 121.516 96.8829Z" fill="#FCD669"/>
<path d="M120.901 91.6557L119.975 91.1414C119.736 92.1521 119.638 93.1911 119.685 94.2287C119.699 94.3587 119.752 94.4814 119.837 94.5802C119.923 94.679 120.037 94.7492 120.163 94.7812C122.288 95.3082 132.42 97.5564 139.387 94.3911C139.488 94.345 139.576 94.2733 139.64 94.1831C139.705 94.0929 139.745 93.9873 139.757 93.8768C139.778 92.9536 139.665 92.0323 139.422 91.1414C139.163 90.4536 120.901 91.6557 120.901 91.6557Z" fill="#FCD669"/>
<path opacity="0.1" d="M120.901 91.6557L119.975 91.1414C119.736 92.1521 119.638 93.1911 119.685 94.2287C119.699 94.3587 119.752 94.4814 119.837 94.5802C119.923 94.679 120.037 94.7492 120.163 94.7812C122.288 95.3082 132.42 97.5564 139.387 94.3911C139.488 94.345 139.576 94.2733 139.64 94.1831C139.705 94.0929 139.745 93.9873 139.757 93.8768C139.778 92.9536 139.665 92.0323 139.422 91.1414C139.163 90.4536 120.901 91.6557 120.901 91.6557Z" fill="black"/>
<path d="M129.697 93.3339C135.067 93.3339 139.42 92.353 139.42 91.143C139.42 89.933 135.067 88.9521 129.697 88.9521C124.328 88.9521 119.975 89.933 119.975 91.143C119.975 92.353 124.328 93.3339 129.697 93.3339Z" fill="#FCD669"/>
<path d="M115.371 89.2705L114.446 88.7563C114.206 89.7669 114.109 90.806 114.156 91.8436C114.169 91.9735 114.222 92.0962 114.308 92.1951C114.393 92.2939 114.507 92.3641 114.634 92.3961C116.759 92.9231 126.891 95.1713 133.858 92.006C133.959 91.9599 134.046 91.8882 134.111 91.798C134.176 91.7078 134.216 91.6022 134.227 91.4917C134.249 90.5685 134.136 89.6471 133.893 88.7563C133.633 88.0684 115.371 89.2705 115.371 89.2705Z" fill="#FCD669"/>
<path opacity="0.1" d="M115.371 89.2705L114.446 88.7563C114.206 89.7669 114.109 90.806 114.156 91.8436C114.169 91.9735 114.222 92.0962 114.308 92.1951C114.393 92.2939 114.507 92.3641 114.634 92.3961C116.759 92.9231 126.891 95.1713 133.858 92.006C133.959 91.9599 134.046 91.8882 134.111 91.798C134.176 91.7078 134.216 91.6022 134.227 91.4917C134.249 90.5685 134.136 89.6471 133.893 88.7563C133.633 88.0684 115.371 89.2705 115.371 89.2705Z" fill="black"/>
<path d="M124.171 90.9471C129.541 90.9471 133.894 89.9662 133.894 88.7562C133.894 87.5462 129.541 86.5653 124.171 86.5653C118.801 86.5653 114.448 87.5462 114.448 88.7562C114.448 89.9662 118.801 90.9471 124.171 90.9471Z" fill="#FCD669"/>
<path d="M119.061 84.6659L118.136 84.1516C117.896 85.1622 117.799 86.2013 117.846 87.2389C117.859 87.3688 117.912 87.4916 117.998 87.5904C118.083 87.6892 118.197 87.7594 118.324 87.7914C120.449 88.3184 130.581 90.5666 137.548 87.4013C137.649 87.3552 137.736 87.2835 137.801 87.1933C137.866 87.1031 137.906 86.9975 137.917 86.887C137.939 85.9638 137.826 85.0425 137.583 84.1516C137.323 83.4637 119.061 84.6659 119.061 84.6659Z" fill="#FCD669"/>
<path opacity="0.1" d="M119.061 84.6659L118.136 84.1516C117.896 85.1622 117.799 86.2013 117.846 87.2389C117.859 87.3688 117.912 87.4916 117.998 87.5904C118.083 87.6892 118.197 87.7594 118.324 87.7914C120.449 88.3184 130.581 90.5666 137.548 87.4013C137.649 87.3552 137.736 87.2835 137.801 87.1933C137.866 87.1031 137.906 86.9975 137.917 86.887C137.939 85.9638 137.826 85.0425 137.583 84.1516C137.323 83.4637 119.061 84.6659 119.061 84.6659Z" fill="black"/>
<path d="M127.861 86.3425C133.231 86.3425 137.584 85.3616 137.584 84.1516C137.584 82.9416 133.231 81.9607 127.861 81.9607C122.491 81.9607 118.138 82.9416 118.138 84.1516C118.138 85.3616 122.491 86.3425 127.861 86.3425Z" fill="#FCD669"/>
<path d="M120.883 79.1998L119.958 78.6855C119.718 79.6962 119.621 80.7353 119.668 81.7728C119.681 81.9028 119.734 82.0255 119.82 82.1243C119.905 82.2232 120.019 82.2933 120.146 82.3253C122.27 82.8523 132.403 85.1005 139.37 81.9352C139.471 81.8892 139.558 81.8175 139.623 81.7272C139.688 81.637 139.728 81.5314 139.739 81.4209C139.76 80.4978 139.648 79.5764 139.405 78.6855C139.145 77.9977 120.883 79.1998 120.883 79.1998Z" fill="#FCD669"/>
<path opacity="0.1" d="M120.883 79.1998L119.958 78.6855C119.718 79.6962 119.621 80.7353 119.668 81.7728C119.681 81.9028 119.734 82.0255 119.82 82.1243C119.905 82.2232 120.019 82.2933 120.146 82.3253C122.27 82.8523 132.403 85.1005 139.37 81.9352C139.471 81.8892 139.558 81.8175 139.623 81.7272C139.688 81.637 139.728 81.5314 139.739 81.4209C139.76 80.4978 139.648 79.5764 139.405 78.6855C139.145 77.9977 120.883 79.1998 120.883 79.1998Z" fill="black"/>
<path d="M129.68 80.8764C135.05 80.8764 139.403 79.8955 139.403 78.6855C139.403 77.4755 135.05 76.4946 129.68 76.4946C124.311 76.4946 119.958 77.4755 119.958 78.6855C119.958 79.8955 124.311 80.8764 129.68 80.8764Z" fill="#FCD669"/>
<path d="M124.404 121.422C129.31 121.422 133.287 117.202 133.287 111.996C133.287 106.79 129.31 102.57 124.404 102.57C119.498 102.57 115.521 106.79 115.521 111.996C115.521 117.202 119.498 121.422 124.404 121.422Z" fill="#FCD669"/>
<path opacity="0.1" d="M124.404 121.422C129.31 121.422 133.287 117.202 133.287 111.996C133.287 106.79 129.31 102.57 124.404 102.57C119.498 102.57 115.521 106.79 115.521 111.996C115.521 117.202 119.498 121.422 124.404 121.422Z" fill="black"/>
<path d="M125.937 121.422C130.844 121.422 134.821 117.296 134.821 112.206C134.821 107.117 130.844 102.991 125.937 102.991C121.031 102.991 117.054 107.117 117.054 112.206C117.054 117.296 121.031 121.422 125.937 121.422Z" fill="#FCD669"/>
<path d="M96.4327 103.231C96.9214 103.898 97.3213 104.626 97.6225 105.397C97.7021 105.596 97.7818 105.806 97.8535 106.033C99.0353 109.565 97.1622 113.799 96.627 113.342C96.0918 112.885 94.4225 112.036 94.1007 113.227C93.7703 114.127 93.2542 114.947 92.586 115.634C90.4149 117.816 88.4526 115.459 87.1592 113.023C86.7402 112.219 86.3679 111.391 86.0442 110.544C85.7447 109.796 85.5854 109.278 85.5854 109.278L94.6296 101.575C95.3505 101.981 95.9677 102.547 96.4327 103.231Z" fill="#24B47E"/>
<path d="M82.1812 108.156C82.6699 108.823 83.0699 109.551 83.371 110.321C83.4507 110.52 83.5303 110.73 83.602 110.958C84.7839 114.49 82.9107 118.723 82.3755 118.266C81.8403 117.809 80.171 116.961 79.8493 118.152C79.5188 119.051 79.0027 119.872 78.3345 120.559C76.1635 122.74 74.2011 120.384 72.9077 117.948C72.4887 117.144 72.1164 116.316 71.7927 115.469C71.4933 114.72 71.334 114.203 71.334 114.203L80.3781 106.5C81.099 106.905 81.7162 107.472 82.1812 108.156Z" fill="#24B47E"/>
<path d="M53.5601 114.961C53.507 115.788 53.3464 116.605 53.0823 117.391C53.0154 117.594 52.9421 117.806 52.8577 118.027C51.5213 121.494 47.3704 123.559 47.2557 122.866C47.141 122.174 46.3908 120.456 45.3825 121.167C44.5524 121.65 43.6297 121.953 42.6747 122.056C39.6133 122.35 39.6069 119.281 40.1692 116.582C40.358 115.694 40.5978 114.818 40.8875 113.958C41.1456 113.198 41.3495 112.694 41.3495 112.694L53.2288 112.534C53.5254 113.307 53.6388 114.137 53.5601 114.961Z" fill="#24B47E"/>
<path d="M38.21 111.092C38.1569 111.919 37.9963 112.736 37.7322 113.522C37.6653 113.725 37.592 113.937 37.5076 114.158C36.1712 117.625 32.0203 119.69 31.9056 118.997C31.7909 118.305 31.0407 116.587 30.0324 117.298C29.2023 117.781 28.2796 118.084 27.3246 118.187C24.2632 118.481 24.2568 115.411 24.8191 112.713C25.0079 111.825 25.2477 110.949 25.5374 110.089C25.7955 109.329 25.9994 108.825 25.9994 108.825L37.8787 108.665C38.1753 109.438 38.2887 110.268 38.21 111.092Z" fill="#24B47E"/>
<path d="M120.559 59.0439C120.559 90.7624 109.825 116.477 60.2874 116.477C27.0003 116.477 1.24895 108.21 0.0160913 59.0439C-0.777141 27.335 27.0003 1.61121 60.2874 1.61121C93.5745 1.61121 120.559 27.3254 120.559 59.0439Z" fill="#092A53"/>
<path d="M93.634 26.0612L89.2346 27.6439C86.9921 24.6376 84.5793 21.7621 82.0079 19.0316C79.2012 16.0392 76.1388 13.2971 72.8555 10.8365C61.5909 2.49172 52.8781 2.27995 50.0015 2.49331L56.6149 1.71631C62.8661 2.7909 68.8778 4.96272 74.3719 8.13133C78.2158 10.3455 81.7961 12.9885 85.0439 16.0096C88.3222 18.9823 91.2088 22.36 93.634 26.0612Z" fill="#24B47E"/>
<path d="M53.8678 29.053C53.8678 29.053 48.0571 9.70283 52.9837 4.42624C52.9837 4.42624 60.7265 1.78794 66.534 16.7388L53.8678 29.053Z" fill="#24B47E"/>
<path d="M83.27 10.9862C83.27 10.9862 98.6696 -2.10178 105.482 0.292903C105.482 0.292903 111.008 6.32261 99.6364 17.648L83.27 10.9862Z" fill="#24B47E"/>
<path d="M131.294 73.6446C131.294 90.694 119.055 104.164 107.537 104.164C96.0191 104.164 89.5889 90.694 89.5889 73.6446C89.5889 56.5952 98.9436 43.4403 110.442 42.7732C128.655 41.7175 131.294 56.5952 131.294 73.6446Z" fill="#24B47E"/>
<path d="M106.834 81.1184C108.972 81.1184 110.706 78.9135 110.706 76.1936C110.706 73.4738 108.972 71.2689 106.834 71.2689C104.695 71.2689 102.961 73.4738 102.961 76.1936C102.961 78.9135 104.695 81.1184 106.834 81.1184Z" fill="#092A53"/>
<path d="M120.559 76.8974C122.698 76.8974 124.431 74.6925 124.431 71.9727C124.431 69.2528 122.698 67.048 120.559 67.048C118.421 67.048 116.687 69.2528 116.687 71.9727C116.687 74.6925 118.421 76.8974 120.559 76.8974Z" fill="#092A53"/>
<path d="M85.7878 12.8331C85.7915 13.939 85.5339 15.03 85.036 16.0175C84.382 17.3273 83.3199 18.389 82.0096 19.0427C79.2023 16.0469 76.1388 13.3016 72.854 10.8381C73.1463 9.83267 73.6637 8.90701 74.3672 8.13131C74.9737 7.45554 75.7155 6.9146 76.5444 6.54351C77.3733 6.17241 78.2709 5.97943 79.1792 5.97705C80.9648 6.01094 82.6639 6.75213 83.9032 8.03773C85.1424 9.32333 85.8202 11.0481 85.7878 12.8331Z" fill="#FCD669"/>
</g>
<defs>
<clipPath id="clip0">
<rect width="164" height="123" fill="white"/>
</clipPath>
</defs>
</svg>
