<svg width="191" height="191" viewBox="0 0 191 191" fill="none" xmlns="http://www.w3.org/2000/svg">
<path d="M59.1916 106.59C58.7197 106.261 58.2153 105.981 57.6864 105.754C45.9001 100.694 24.0242 122.853 24.0242 122.853L21.544 120.373C28.4581 111.815 34.7246 102.753 40.2915 93.2629C49.3603 78.0676 72.7954 79.767 77.414 80.2638C77.9256 80.3179 78.2072 80.3536 78.2072 80.3536C86.216 97.669 59.1916 106.59 59.1916 106.59Z" fill="#092A53"/>
<path d="M98.1799 151.156C88.6861 156.715 79.6248 162.981 71.073 169.902L68.5891 167.418C68.5891 167.418 91.7549 144.564 85.3126 132.986C85.1759 132.732 85.0235 132.487 84.8564 132.252C84.8564 132.252 93.7691 105.218 111.087 113.235C111.087 113.235 111.115 113.452 111.164 113.875C111.634 118.101 113.547 141.986 98.1799 151.156Z" fill="#092A53"/>
<path d="M59.1913 106.596C58.7193 106.266 58.215 105.986 57.6861 105.759C63.6165 96.7818 70.2086 88.2593 77.4076 80.2629C77.9241 80.322 78.2056 80.3576 78.2056 80.3576C86.217 97.6705 59.1913 106.596 59.1913 106.596Z" fill="#3D33B9"/>
<path d="M111.166 113.882C103.076 120.94 94.4279 127.331 85.3069 132.993C85.1702 132.739 85.0178 132.494 84.8507 132.259C84.8507 132.259 93.7646 105.231 111.082 113.248C111.078 113.244 111.116 113.462 111.166 113.882Z" fill="#3D33B9"/>
<path d="M80.7856 134.996C76.4613 137.571 71.8971 140.086 67.0932 142.541C67.0932 142.541 55.7053 142.773 48.0432 123.49C50.2868 119.007 52.7622 114.643 55.4593 110.417C66.3837 92.9752 89.5028 62.0373 125.591 42.6032C136.418 36.7373 147.943 32.2635 159.892 29.288C159.892 29.288 158.836 44.5707 148.426 65.4263C138.016 86.282 118.234 112.707 80.7856 134.996Z" fill="#24B47E"/>
<path d="M103.992 87.4516C110.17 93.6291 120.185 93.6291 126.362 87.4516C132.54 81.2741 132.54 71.2584 126.362 65.081C120.185 58.9035 110.17 58.9035 103.992 65.081C97.8148 71.2584 97.8148 81.2741 103.992 87.4516Z" fill="#092A53"/>
<path d="M123.103 84.2039C121.601 85.706 119.703 86.7506 117.63 87.2163C115.557 87.682 113.395 87.5496 111.395 86.8345C109.394 86.1194 107.638 84.8511 106.33 83.177C105.023 81.5029 104.217 79.4919 104.007 77.3779C103.907 76.3436 103.95 75.3005 104.134 74.2778C104.215 73.8201 104.324 73.3679 104.462 72.9239C105.003 71.1939 105.957 69.6211 107.24 68.3409L107.424 68.1564C109.162 66.4985 111.384 65.441 113.766 65.1391C116.149 64.8372 118.565 65.3069 120.661 66.4791C121.455 66.9304 122.194 67.474 122.861 68.0986L123.098 68.3359C124.14 69.3774 124.967 70.614 125.532 71.9752C126.096 73.3364 126.387 74.7954 126.387 76.2689C126.388 77.7425 126.098 79.2017 125.534 80.5632C124.971 81.9247 124.145 83.1618 123.103 84.2039Z" fill="white"/>
<path d="M148.423 65.4232C143.09 63.6812 138.243 60.7056 134.275 56.7383C130.308 52.7709 127.333 47.9236 125.591 42.5902C136.418 36.7283 147.942 32.2582 159.89 29.2861C159.89 29.2861 158.836 44.57 148.423 65.4232Z" fill="#092A53"/>
<path d="M80.7899 135.001C77.8601 136.744 74.8215 138.46 71.6744 140.15C70.1758 140.957 68.6498 141.754 67.0963 142.542C67.0963 142.542 55.7084 142.774 48.0463 123.491C48.0463 123.491 48.8382 121.824 50.438 118.913C51.6492 116.713 53.3203 113.82 55.4587 110.407C57.8871 115.738 61.2746 120.577 65.4523 124.683C69.8362 129.098 75.0483 132.604 80.7899 135.001V135.001Z" fill="#092A53"/>
<path d="M71.6734 140.14C70.1749 140.947 68.6488 141.744 67.0954 142.532C67.0954 142.532 55.7074 142.765 48.0453 123.482C48.0453 123.482 48.8372 121.814 50.437 118.904C50.437 118.904 60.2166 136.585 71.6734 140.14Z" fill="#092A53"/>
<path d="M48.0707 123.484C48.0707 123.484 37.8627 126.76 35.1133 130.574C32.8456 134.348 31.006 138.363 29.6284 142.545C29.6284 142.545 35.5567 136.375 42.671 135.445C42.671 135.445 29.6284 145.183 30.8927 160.237C30.8927 160.237 48.0759 158.534 54.8424 148.197C54.8424 148.197 55.8737 154.3 49.1037 160.237C49.1037 160.237 64.3427 155.969 67.1268 142.545C62.9511 141.502 59.1253 139.373 56.0371 136.375C52.583 132.626 49.8788 128.25 48.0707 123.484V123.484Z" fill="#FCD669"/>
<path d="M49.4046 126.433C49.4046 126.433 38.8401 128.628 37.2315 133.511C37.2315 133.511 46.7856 131.798 48.3733 133.511C48.3733 133.511 35.5568 142.93 37.2315 152.641C37.2315 152.641 46.7178 154.1 56.6319 142.923C56.6319 142.923 59.4717 149.456 58.051 152.641C58.051 152.641 63.7097 148.265 64.5723 141.858C61.0295 140.357 57.8141 138.178 55.1068 135.443C52.7014 132.791 50.7723 129.742 49.4046 126.433V126.433Z" fill="#FCD669"/>
</svg>
